<?xml version="1.0" standalone="no"?><!DOCTYPE svg PUBLIC "-//W3C//DTD SVG 1.1//EN" "http://www.w3.org/Graphics/SVG/1.1/DTD/svg11.dtd"><svg class="icon" width="200px" height="200.00px" viewBox="0 0 1024 1024" version="1.1" xmlns="http://www.w3.org/2000/svg"><path d="M585.917473 1024a28.211137 28.211137 0 0 1-15.718365-51.609484c31.948728-21.452752 48.74229-46.079896 51.199885-75.46863 4.710389-54.067078-39.321512-117.196536-81.919816-158.207644a250.265037 250.265037 0 0 1-62.412659-108.594956c-59.903865 32.409527-97.279781 72.857436-111.922949 120.575729-28.364736 93.798189 37.887915 196.146759 59.647866 229.733883a28.211137 28.211137 0 0 1-34.099123 41.523107C234.071864 959.692945 142.321671 874.291537 117.745726 768.000576c-33.996724-147.097269 70.399842-289.688948 135.782095-361.778386 93.695789-106.75176 134.041298-203.212343 151.346859-265.317803 18.739158-67.174249 15.359965-109.721353 15.359965-110.130952A28.159937 28.159937 0 0 1 463.396148 4.405494c149.913263 94.617387 204.799539 204.031541 224.767495 279.141772a355.6344 355.6344 0 0 1 11.724773 80.793418l40.959908-29.644733a28.211137 28.211137 0 0 1 39.116712 5.887987c116.428538 155.238051 156.671647 295.013736 119.551731 415.435865-50.534286 163.839631-229.682683 240.946658-304.383315 266.239401a28.159937 28.159937 0 0 1-9.215979 1.740796zM474.455323 80.232523c-8.345581 72.447837-43.212703 208.94673-178.585198 363.519183l-0.358399 0.358399c-46.694295 51.199885-152.063658 184.626785-122.879723 311.346499 16.025564 69.222244 70.092642 128.97251 161.177237 178.277999-24.729544-54.374278-44.799899-126.822115-22.886349-199.321151s81.919816-131.020505 177.9196-172.697212a28.211137 28.211137 0 0 1 39.526311 27.084739c-1.791996 37.683115 28.415936 88.422201 49.971088 109.106955 25.343943 24.268745 107.519758 110.796551 99.276576 203.775541a142.591679 142.591679 0 0 1-4.40319 24.985544c68.403046-37.427116 144.588475-97.535781 172.287613-187.340378 29.798333-96.716582-1.945596-211.865123-94.412588-342.57843l-67.430248 48.89589a28.211137 28.211137 0 0 1-43.673502-29.695933c0-0.358399 12.185573-51.199885-6.963184-121.138927-22.476749-81.049418-75.62223-153.087656-158.566044-214.578718zM274.673373 424.961348z" /></svg>